<?xml version="1.0" standalone="no"?>
<!DOCTYPE svg PUBLIC "-//W3C//DTD SVG 20010904//EN"
 "http://www.w3.org/TR/2001/REC-SVG-20010904/DTD/svg10.dtd">
<svg version="1.0" xmlns="http://www.w3.org/2000/svg"
 width="655.000000pt" height="655.000000pt" viewBox="0 0 655.000000 655.000000"
 preserveAspectRatio="xMidYMid meet">
<metadata>
Created by potrace 1.14, written by Peter Selinger 2001-2017
</metadata>
<g transform="translate(0.000000,655.000000) scale(0.100000,-0.100000)"
fill="#000000" stroke="none">
<path d="M3088 6545 c-1 -1 -41 -5 -88 -9 -142 -10 -201 -18 -365 -52 -146
-30 -128 -25 -255 -63 -351 -102 -648 -247 -980 -478 -31 -21 -151 -114 -166
-128 -6 -5 -35 -30 -64 -55 -86 -72 -370 -360 -355 -360 3 0 -3 -8 -13 -18
-70 -70 -264 -350 -342 -494 -147 -268 -278 -604 -325 -828 -2 -8 -8 -35 -14
-60 -17 -68 -18 -71 -25 -123 -4 -27 -9 -59 -12 -70 -4 -22 -11 -67 -20 -142
-26 -209 -26 -622 0 -790 3 -16 7 -48 10 -70 5 -37 38 -219 50 -274 51 -229
160 -530 275 -753 75 -146 159 -291 173 -296 4 -2 8 -8 8 -13 0 -18 174 -250
280 -373 43 -50 269 -276 276 -276 4 0 19 -12 33 -28 15 -15 47 -43 71 -62 25
-19 47 -37 50 -40 25 -26 217 -160 230 -160 5 0 10 -4 10 -8 0 -4 30 -26 67
-47 37 -22 75 -44 85 -50 150 -89 558 -270 558 -248 0 3 6 1 13 -5 26 -22 397
-118 492 -127 19 -2 120 -17 140 -21 130 -25 656 -24 780 1 11 2 47 7 80 10
32 4 62 8 65 10 3 2 23 6 44 9 32 5 133 26 196 40 8 2 42 12 75 22 33 10 65
19 70 20 22 4 211 67 220 74 6 3 33 15 60 24 57 21 323 150 403 196 102 58
357 232 382 260 3 3 18 16 35 29 101 77 336 304 410 395 22 28 49 60 60 72 39
45 66 80 115 149 27 39 54 75 58 80 21 25 82 126 82 135 0 6 5 10 10 10 6 0
10 6 10 14 0 8 3 16 8 18 8 3 17 20 112 203 36 72 69 139 73 150 3 11 20 54
37 95 99 234 176 533 216 840 26 197 25 631 -1 800 -2 14 -7 45 -10 70 -11 86
-36 216 -61 315 -14 55 -27 105 -28 110 -5 23 -39 132 -46 150 -5 11 -16 42
-25 70 -9 27 -21 55 -27 62 -6 7 -8 13 -5 13 4 0 -8 31 -58 150 -30 70 -122
247 -170 328 -28 46 -55 91 -60 100 -40 67 -189 272 -238 327 -12 13 -35 41
-52 61 -34 41 -255 265 -301 304 -16 14 -56 48 -89 74 -33 27 -62 52 -65 56
-3 4 -34 27 -70 51 -36 24 -67 46 -70 50 -9 11 -179 119 -189 119 -5 0 -13 6
-19 13 -6 7 -44 30 -84 50 -40 21 -80 42 -88 47 -27 17 -193 91 -285 127 -49
19 -99 38 -110 43 -18 7 -114 37 -190 60 -112 33 -341 79 -475 95 -30 4 -68 8
-85 11 -35 5 -492 14 -497 9z"/>
</g>
</svg>
